<svg width="140" height="169" fill="none" xmlns="http://www.w3.org/2000/svg"><path d="M.446 82.019s21.032-3.125 32.181-4.055c10.727-.845 23.4-1.351 36.911-1.351 13.511 0 26.268.507 36.911 1.35 11.149.93 32.181 5.238 32.181 5.238v5.49c0 4.814-31 8.784-69.177 8.784-38.177 0-69.008-3.97-69.008-8.784l.001-6.672Z" fill="#262223"/><path d="m23.558 132.862-2.794-19.194-.128-.251-.32-2.84-.365-2.5h.081l-.613-5.419-.162-1.433c-.043-.38-.362-5.49 1.07-8.662.49.953 1.065 1.86 1.72 2.71.024.032.052.064.077.1.194.246.394.49.6.73l.143.154c.2.218.4.433.613.643.064.063.13.123.195.185.206.2.418.39.638.577.08.067.16.132.24.2a14.076 14.076 0 0 0 .941.71c3.724 3.377 40.426 4.738 54.32 6.23 8.266.888 23.279.189 24 1.037.471.55.517 14.575.7 15.275 3.039 11.548 2.307 13.47-1.067 24.923v.017l.011 1.137c-11.379 10.841-25.21 21.2-42.53 20.956-9.205.178-16.739-1.52-22.519-5.093a31.921 31.921 0 0 1-12.677-17.357 43.908 43.908 0 0 1-.975-4.551l-1.199-8.284Z" fill="#FF8F66"/><path d="M97.5 128.745c0-12.979-6.47-18.644-24.788-18.644-13.6 0-49.469-.259-52.526.452 0 0-3.056-24.559-1.85-34.69.024-.043 23.79-15.569 23.812-15.616-.15-.08 19.42-4.63 26.057-3.52L98.52 51.21c25.891-1.137 31.8 22.807 31.214 31.38l-3.131 21.263a16.936 16.936 0 0 1 7.715 19.107 16.94 16.94 0 0 1-6.117 8.998 16.94 16.94 0 0 1-10.327 3.424h-.024a16.871 16.871 0 0 1-4.214-.537 110.891 110.891 0 0 1-10.218 12.383l-5.39 4.892c.003-10.649-.529-11.434-.529-23.375Z" fill="url(#a)"/><path d="M11.774 116.945a16.854 16.854 0 0 1 6.889-13.761c.247-.183.5-.361.756-.531l.613 5.419h-.08l.363 2.5.321 2.84.128.251 2.794 19.194a16.941 16.941 0 0 1-11.784-15.912Z" fill="url(#b)"/><path d="M127.866 104.675a16.851 16.851 0 0 0-9.744-3.168h-.12a16.796 16.796 0 0 0-7.046 1.53c-2.265-4.811-6.744-5.819-10.1-5.819a16.48 16.48 0 0 0-3.868.444c-.165-.162-16.674-16.3-19.327-17.014a31.062 31.062 0 0 0-8.262-.94 45.049 45.049 0 0 0-8.07.694c-.62.11-1.249.242-1.856.369l-.117.022a35.63 35.63 0 0 1-3.906.671 22.8 22.8 0 0 1-2.252.102c-1 0-1.987-.051-2.646-.088-3.154-.174-6.791-.482-10.021-1.986a20.28 20.28 0 0 1-5.8-4.594l-.016-.018a23.306 23.306 0 0 0-5.02-4.207 22.695 22.695 0 0 0-2.122-1.025l-.043-.022c-1.165-.505-2.084-.905-2.5-1.716-.432-.846-.3-2.146.427-4.223 1.68-4.787 5.745-10.1 12.082-15.777a54.882 54.882 0 0 1 36.5-13.985c1.8 0 3.597.09 5.388.272.071.007.144.01.216.01.193-.004.386-.02.578-.05h.022c.118-.013.244-.03.367-.04a61.517 61.517 0 0 0-2.475-.192h.144l.493.026a5.835 5.835 0 0 1 2.411-2.164 14.951 14.951 0 0 1 5-1.174h.008l4.327-.5h.033l4.3-.5a7.638 7.638 0 0 1-6.26 4.51 24.044 24.044 0 0 0 8.254-.752 10.383 10.383 0 0 1-2.17 3.875 52.897 52.897 0 0 1 14.648 8.166 55.922 55.922 0 0 1 10.544 10.98 57.26 57.26 0 0 1 6.681 11.865 36.228 36.228 0 0 1 2.736 21.56v.007l-.069.64c-.16 4.762-.61 9.509-1.347 14.215l-.002-.004Z" fill="url(#c)"/><path d="M121.577 117.525c3.619-1.3 3.821-6.458.344-7.859a6.85 6.85 0 0 0-5.323-.116c-3.7 1.474-4.69 3.933-4.647 8.157a10.16 10.16 0 0 0 2.516 6.648l-.007-.676c-.109-2.7 3.752-4.938 7.117-6.154Z" fill="#FF8F66"/><path d="M59.666 150.409a8.955 8.955 0 0 1-8.953-8.953h17.99a8.922 8.922 0 0 1-8.891 8.953h-.146Z" fill="#fff"/><path d="m126.38 67.745-50.243-7.424-12.963-.522-51.493-3.464-.236 27.454c0 13.682 11.318 22.213 25 22.213H87.17v-10.13A23.051 23.051 0 0 0 90 99.318c4.258 4.283 17.491 6.683 17.491 6.683 3.018-4.187 10.985-6.206 16.131-5.808l-2.33-1.543c2.604-.006 5.088-30.906 5.088-30.906Z" fill="url(#d)"/><path d="M138.969 87.307V80.55c0-4.646-29.368-8.564-65.772-8.817h-3.97C31.218 71.733.22 75.703.22 80.517v6.757a1.466 1.466 0 0 0 .253 1.183c.084-.085.253-.17.338-.253.93-.93 2.956-1.774 5.913-2.618 3.041-.76 6.081-1.351 9.122-1.858a10.645 10.645 0 0 1 10.136 4.054 14.722 14.722 0 0 0 11.825 5.828h37.25a22.14 22.14 0 0 0 13.682-4.646l5.321-4.054a12.342 12.342 0 0 1 7.433-2.534c7.264.084 12.247.084 13.008.169a121.86 121.86 0 0 1 17.484 2.956c2.274.473 4.892 1.489 6.731 2.905a1.213 1.213 0 0 0 .254-1.099Z" fill="#FFF100"/><path d="M90.9 8.626a63.3 63.3 0 0 1 42.063 59.717v8.954c-5.744-1.69-15.373-3.041-27.451-3.97.084-1.69.084-3.463.084-5.237.085-23.482-5.658-44.767-14.696-59.464Z" fill="url(#e)"/><path d="M6.266 68.343a63.141 63.141 0 0 1 14.443-40.29c-4.062 12.983-5.027 26.075-4.94 39.678 0 2.45.083 4.9.168 7.348-2.885.408-6.796 1.472-9.59 2.3l-.081-9.036Z" fill="url(#f)"/><path d="M20.71 28.052A63.385 63.385 0 0 1 90.9 8.625c9.038 14.78 14.781 35.982 14.781 59.548 0 1.774 0 3.463-.084 5.237-9.46-.76-20.356-1.182-32.012-1.267H69.7c-22.3 0-42.063 1.35-54.733 3.379a106.97 106.97 0 0 1-.253-7.348 131.6 131.6 0 0 1 5.996-40.122Z" fill="#FFF100"/><path d="m44.143 32.192 4.054-25.086a4.726 4.726 0 0 1 3.379-3.885 63.772 63.772 0 0 1 35.813-.084 4.726 4.726 0 0 1 3.379 3.885l4.054 25.17" fill="#FFF100"/><path d="m45.371 51.447 14.613 8.955v11.656L45.371 51.447Zm0-5.407 14.613-23.562V54.58l-14.613-8.54Z" fill="#0A0A0A"/><path d="m59.983 60.402 14.613-8.955-14.613 20.611V60.402Zm0-22.98V22.473L74.601 46.04l-.086-.047v.047l-14.609 8.45.077-17.069Z" fill="#4B4D4D"/><defs><linearGradient id="a" x1="91.402" y1="107.501" x2="92.992" y2="156.275" gradientUnits="userSpaceOnUse"><stop stop-color="#FB7E51"/><stop offset="1" stop-color="#FF8F66"/></linearGradient><linearGradient id="b" x1="17.666" y1="102.653" x2="6.51" y2="105.083" gradientUnits="userSpaceOnUse"><stop stop-color="#FB7F52"/><stop offset="1" stop-color="#FF8F66"/></linearGradient><linearGradient id="c" x1="101.594" y1="104.679" x2="67.596" y2="35.118" gradientUnits="userSpaceOnUse"><stop stop-color="#4F00A3"/><stop offset="1" stop-color="#23004E"/></linearGradient><linearGradient id="d" x1="84.889" y1="96.118" x2="82.965" y2="66.531" gradientUnits="userSpaceOnUse"><stop stop-color="#4F00A3"/><stop offset="1" stop-color="#23004E"/></linearGradient><linearGradient id="e" x1="111.932" y1="8.626" x2="111.932" y2="77.297" gradientUnits="userSpaceOnUse"><stop stop-color="#FFF100"/><stop offset="1" stop-color="#F5D600"/></linearGradient><linearGradient id="f" x1="13.487" y1="28.053" x2="13.487" y2="77.38" gradientUnits="userSpaceOnUse"><stop stop-color="#FFF100"/><stop offset="1" stop-color="#F5D600"/></linearGradient></defs></svg>