<svg width="336" height="571" fill="none" xmlns="http://www.w3.org/2000/svg"><path d="M167.927 397.855V.613L.445 291.258l167.482 106.597Z" fill="url(#a)"/><path opacity=".6" d="M167.928.613 335.41 291.258 167.928 397.855V.613Z" fill="url(#b)"/><path d="M168.204 570.242V432.553L.445 325.678l167.759 244.564Z" fill="url(#c)"/><path opacity=".6" d="M167.928 570.242V432.553L335.41 325.678 167.928 570.242Z" fill="url(#d)"/><mask id="e" style="mask-type:alpha" maskUnits="userSpaceOnUse" x="0" y="169" width="168" height="229"><path d="M167.927 397.855V169.888l-167.482.67v120.7l167.482 106.597Z" fill="#E31FDC"/></mask><g mask="url(#e)"><path d="M139.051 312.055H51.378a20.368 20.368 0 0 1-20.357-20.356V237.16h108.03v74.895Z" fill="url(#f)"/><path d="M134.046 311.289c5.405-.264 10.135-3.6 14.612-6.585-2.45-10.622-22.318-24.07-38.398-16.511.591 1.93 17.704 15.546 17.704 15.546s6 1.932 6.082 7.55Z" fill="#F2EDDC"/><path d="M134.044 311.287c0 1.664-.76 2.985-3.211 5.619-.59.614-1.435 10.186-.759 13.96 17.568-7.727 20.947-17.3 18.328-26.953-4.053 3.337-9.122 6.5-14.358 7.374" fill="url(#g)"/><path d="M139.112 325.071a35.454 35.454 0 0 0 5.152-5 25.967 25.967 0 0 0 4.983-11.15 22.986 22.986 0 0 0-.76-4.828c-4.223 3.335-9.207 6.495-14.443 7.287-.338 1.579-.76 2.983-3.21 5.617-.591.614-1.689 10.536-1.267 15.013 2.872-2.458 6.166-4.214 9.207-6.409.07-.2.186-.38.338-.527" fill="#FF8F66"/><path d="M137.587 332.621a10.52 10.52 0 0 0 .929-10.974c-2.112-4.653-5.913-5.794-9.882-3.424a22.125 22.125 0 0 0-5.068 4.741c-1.436 1.755-2.872 3.688-2.787 5.97a8.898 8.898 0 0 0 3.379 7.023c1.267.965 5.321 3.161 7.348 3.161a8.087 8.087 0 0 0 4.223-.966 5.82 5.82 0 0 0 2.281-2.287 3.042 3.042 0 0 0-.253-3.16c-.082-.084-.082-.084-.17-.084" fill="#FB7E51"/><path d="M136.833 334.201a.867.867 0 0 1-.676.438 5.955 5.955 0 0 1-2.365.615.983.983 0 0 1-.93-1.027v-.027a.932.932 0 0 1 .422-.791 16.254 16.254 0 0 0 3.548-2.9c0-.087.084-.175.084-.263.591-1.053 1.1-2.194 1.6-3.248.343-.97.598-1.969.76-2.985a12.699 12.699 0 0 0-.76-2.369c-2.112-4.655-5.913-5.795-9.882-3.424a22.074 22.074 0 0 0-5.068 4.739c-1.436 1.757-2.872 3.688-2.787 5.971a8.885 8.885 0 0 0 3.379 7.022c1.267.966 5.068 2.986 7.348 3.161a8.058 8.058 0 0 0 4.223-.965 5.811 5.811 0 0 0 2.281-2.286 3.169 3.169 0 0 0 .084-2.635c-.399.35-.821.675-1.262.971" fill="#FF8F66"/><path d="m100.084 394.323.845 6.01h5.109v-2.547l-1.1-3.464-4.854.001Z" fill="#15191F"/><path d="M79.322 393.518H67.938c-.034.491-.05.759-.05.759l-7.443 2v4.01H71.26l3.885-2.953v2.953h5.448s.51-2.342 1.1-6.01c.035-.23.077-.474.118-.715-.83-.017-1.659-.025-2.489-.044ZM116.107 394.276l.108-.539c-.2.017-.407.031-.62.031-4.763 0-9.526-.007-14.289-.02-.214 4-.439 6.537-.439 6.537h5.109v-2.953l3.885 2.953h12.83v-4.009l-6.584-2Z" fill="#0A0A0A"/><path d="M67.89 394.277h13.89c2.283-15.766 10.406-31.063 16.246-45.434 0 0 4.44 24.156 2.081 45.434h16.082c2.281-35.791 9.4-34.528 12.155-60.816 0-10.773-60.899-2.848-60.899-2.848l2.896 41.049-2.452 22.615Z" fill="#312D2E"/><path d="M98.03 348.945c4.476 18.235 2.08 45.434 2.08 45.434h5.278c0-.1 1.168-33.519-7.359-45.434" fill="#262223"/><path d="M67.89 394.277c1.068-.6 5.512-18.647 4.62-29.772-1.009-12.561-1.51-28.949 2.626-34.407-1.527-.734-7.69-.485-7.69-.485s-2.615 13.223 1.603 35.848c1.151 5.963-.088 20.159-1.16 28.816ZM100.109 394.277l.845 6.01h5.109v-2.95l-.676-3.056-5.278-.004Z" fill="#0A0A0A"/><path d="M105.176 283.613c-32.6 1.52-33.11 6.166-33.11 6.166-4.17 3.952-11.808 16.506-7.18 15.035 4.63-1.471 7.313-.458 7.629-.221 1.436 1.1 1.2 4.323.95 6.942a49.634 49.634 0 0 1-2.7 10.558c0 3.885-1.736 5.05-1.82 9.02l57.778 1.913s.421-19.68.591-26.269" fill="#F2EDDC"/><path d="M72.984 313.378c5.02-1.137 13.916-14.583.641-26.789-1.554-1.429 11.577-.361 17.32 3.524.507 1.437 14.635 14.093 14.635 14.093s5.452-9.715-.817-19.286c6.81-1.208 19.17.257 24.24 21.1.372 1.529-2.532 7.557-2.416 9.3 0 0 2.848 12.642 1.581 17.457a189.956 189.956 0 0 1-25.065 1.96c-17.23 0-36.658-2.028-36.658-2.028a52.69 52.69 0 0 1 6.54-19.331Z" fill="#EDD131"/><mask id="h" style="mask-type:alpha" maskUnits="userSpaceOnUse" x="66" y="284" width="64" height="51"><path d="M72.984 313.378c5.02-1.137 13.916-14.583.641-26.789-1.554-1.429 15.457 2.872 21.2 6.757.507 1.437 10.755 10.86 10.755 10.86s5.452-9.715-.817-19.286c6.81-1.208 19.17.257 24.24 21.1.372 1.529-2.532 7.557-2.416 9.3 0 0 2.848 12.642 1.581 17.457a189.956 189.956 0 0 1-25.065 1.96c-17.23 0-36.658-2.028-36.658-2.028a52.69 52.69 0 0 1 6.54-19.331Z" fill="#E800ED"/></mask><g mask="url(#h)"><path d="M103.005 329.205a257.354 257.354 0 0 1-35.486-2.513l.7-4.951c21.434 3.034 44.212 3.285 60.933.673l.772 4.939a177.897 177.897 0 0 1-26.919 1.852Z" fill="url(#i)"/><path d="M102.304 320.249a212.181 212.181 0 0 1-34.859-2.71l.856-4.926c20.772 3.607 47.9 3.249 60.206.653l1.033 4.892c-6.267 1.322-16.213 2.091-27.236 2.091Z" fill="url(#j)"/><path d="M105.445 303.613c2.716 12.544 0 31.774 0 31.774" stroke="#AD960C" stroke-miterlimit="10"/></g></g><mask id="k" style="mask-type:alpha" maskUnits="userSpaceOnUse" x="167" y="0" width="169" height="398"><path d="M167.928 397.855V.613L335.41 291.258 167.928 397.855Z" fill="#E31FDC"/></mask><g mask="url(#k)"><path d="M202.137 312.791c-5.962-.275-11.1-3.119-16.051-6.237 2.752-11.282 14.308-20.179 24.581-18.8-.642 2.018-3.118 18.8-3.118 18.8s-5.504 1.651-5.412 6.237Z" fill="#F2EDDC"/><path d="M202.136 312.514c0 1.834.917 4.127 3.577 6.879.642.734 1.559 10.823.826 14.859-19.354-8.163-23.114-18.345-20.175-28.617a34.84 34.84 0 0 0 15.772 6.879Z" fill="url(#l)"/><path d="M196.632 328.015a44.517 44.517 0 0 1-5.687-5.32 27.502 27.502 0 0 1-5.5-11.832 20.2 20.2 0 0 1 .917-5.228 36.216 36.216 0 0 0 15.868 6.879c0 1.834.917 4.127 3.577 6.879.642.642 1.834 11.19 1.468 15.959-3.21-2.568-6.879-4.494-10.181-6.879l-.462-.458Z" fill="#FF8F66"/><path d="M198.375 336.088a10.769 10.769 0 0 1-1.009-11.648c2.293-4.953 6.512-6.145 10.915-3.577a22.556 22.556 0 0 1 5.6 5.045c1.559 1.834 3.21 3.944 3.118 6.329a9.164 9.164 0 0 1-3.761 7.429c-1.376 1.009-5.87 3.394-8.071 3.394a8.848 8.848 0 0 1-4.586-1.009 6.075 6.075 0 0 1-2.577-2.478 3.234 3.234 0 0 1 .275-3.394c.004-.091.004-.091.096-.091Z" fill="url(#m)"/><path d="M199.202 337.738a.934.934 0 0 0 .734.459 6.667 6.667 0 0 0 2.66.642 1.042 1.042 0 0 0 1.009-1.1.968.968 0 0 0-.459-.826 18.051 18.051 0 0 1-3.944-3.027c0-.092-.092-.183-.092-.275-.642-1.1-1.192-2.293-1.743-3.485-.367-1.009-.642-2.11-.917-3.118.183-.826-.459-1.865 0-2.691 2.293-4.953 4.928-7.457 9.331-4.889 2.109 1.376 6.537 4.553 8.1 6.571 1.559 1.834 3.21 3.944 3.118 6.329a9.176 9.176 0 0 1-3.761 7.429c-1.376 1.009-5.595 3.21-8.071 3.394a8.654 8.654 0 0 1-4.593-1.007 6.072 6.072 0 0 1-2.568-2.476 3.205 3.205 0 0 1-.092-2.752c.37.18.829.547 1.288.822Z" fill="#FF8F66"/><path d="M275.439 394.963s.409-52.965-4.321-66.057c-1.6-1.436-62.673 2.872-62.673 2.872l9.24 63.27h-6.673v5.068H226.1l3.886-2.534v2.534h7.192s-4.155-41.732 2.011-55.33c5.237 6 15.644 39.958 17.5 50.178.592 3.125 1.1 5.068 1.1 5.068h6.7v-2.45l3.971 2.449h14.079v-5.068h-7.1Z" fill="#262223"/><path d="M275.441 394.964h-18.917c-3.885-24.326-14.581-39.92-17.332-47.729-.061 2.229-.828 29.822-1.166 47.729H217.6c-7.885-36.586-9.155-63.27-9.155-63.27l62.674-2.872 4.322 66.142Z" fill="#312D2E"/><path d="M239.273 347.32c-1.163 16.058-1.166 47.729-1.166 47.729h-7.361c-.081-.085-.172-37.678 8.527-47.729Z" fill="#262223"/><path d="m238.112 394.964-.845 5.068h-7.193v-2.112l1.1-2.956h6.938Z" fill="#15191F"/><path d="m275.442 394.963-12.852-66.057h8.532l4.32 66.057Z" fill="#262223"/><path d="m238.112 394.964-.845 5.068h-7.193v-2.112l1.1-2.956h6.938ZM275.442 394.964h7.1v5.072h-8.532v-5.068h1.436" fill="#0F0D0B"/><path d="M223.251 278.615c33.11 1.6 46.371 10.39 46.371 10.39a72.181 72.181 0 0 1 2.534 15.372 1.693 1.693 0 0 0-1.1.339c-1.52 1.1-1.689 2.956-1.436 5.658.51 3.672 2.7 18.751 2.787 22.721h-64.191l-.169-32.772s4.73-21.962 15.2-21.708" fill="#F2EDDC"/><path d="M270.339 314.472s-15.547-7.574-5.41-28.269c-1.688-1.266-16.291 4.231-22.119 8.116-.507 1.521-12.349 10.708-12.349 10.708s-4.834-5.542-5.334-10.583l4.919-1.4-9.46-10.474c-9.376 4.053-14.021 4.223-14.107 28.886 0 0 .085 16.641 1.437 21.538a212.789 212.789 0 0 0 27.029 2.113c17.568 0 37.333-2.113 37.333-2.113l-1.939-18.522Z" fill="#EDD131"/><mask id="n" style="mask-type:alpha" maskUnits="userSpaceOnUse" x="206" y="282" width="67" height="54"><path d="M270.305 314.515s-15.547-7.574-5.41-28.269c-1.688-1.266-16.291 4.231-22.119 8.116-.507 1.521-12.349 10.708-12.349 10.708s-4.834-5.542-5.334-10.583l4.919-1.4-9.46-10.474c-9.376 4.053-14.021 4.223-14.107 28.886 0 0 .085 16.641 1.437 21.538a212.817 212.817 0 0 0 27.029 2.113c17.568 0 37.333-2.113 37.333-2.113l-1.939-18.522Z" fill="#8C17B6"/></mask><g mask="url(#n)"><path d="M233.708 330.14a186.522 186.522 0 0 1-28.3-2.015l.771-4.939c19.392 3.029 44.358 2.518 65.16-1.336l.91 4.916a216.435 216.435 0 0 1-38.541 3.374Z" fill="url(#o)"/><path d="M236.183 321.166c-12.3 0-23.634-.814-30.322-2.227l.403-5.082c12.638 2.669 44.777 3.26 64.954-.245l.855 4.926a222.158 222.158 0 0 1-35.89 2.628Z" fill="url(#p)"/><path d="M231.291 303.613c-2.166 12.542.511 31.659.511 31.659" stroke="#AD960C" stroke-miterlimit="10"/></g></g><path d="M48.169 300.946a13.314 13.314 0 0 0-2.618 7.179c.084 0 .084.085.169.085 2.534 2.027 5.575 3.716 8.869 3.885 2.22.183 4.447.24 6.673.169-.17-5.659 5.49-9.713 11.4-8.531.76-3.463 2.283-15.62 2.283-15.62s-18.836.08-26.776 12.833Z" fill="#F2EDDC"/><path d="M61.261 311.759a30.153 30.153 0 0 1-15.71-3.885c-.929 7.94 4.392 16.893 10.727 20.609 4.392 2.534 12.416-1.943 13.6-5.659-6.504-3.547-8.786-7.602-8.617-11.065Z" fill="url(#q)"/><path d="M66.33 320.458a12.603 12.603 0 0 0-7.772 3.97 9.795 9.795 0 0 0-2.28 3.97c-.17.676.252 3.8 3.8 5.49a4.236 4.236 0 0 0 1.266 4.561c4.9 4.561 13.6-.507 14.36-1.436 1.773-2.281 2.364-5.406 2.7-8.024.341-2.196-6.585-9.375-12.075-8.531Z" fill="url(#r)"/><path d="M64.472 335.409a14.58 14.58 0 0 0-2.281-2.281 4.053 4.053 0 0 0-1.6-.762 5.66 5.66 0 0 1-2.568-2.051c-.251-.154-.392-.264-.392-.312h.217a3.542 3.542 0 0 1-.247-2.463 5.589 5.589 0 0 1-.813-.492c-9.038-8.277-8.617-16.56-8.617-17.905a30.555 30.555 0 0 0 13.093 2.532c-.134 2.8 1.316 5.865 5.093 8.777 4.894-.74 10.957 4.654 12.054 8.451a11.768 11.768 0 0 1-4.9 4.645 18.233 18.233 0 0 1-7.41 2.021 8.108 8.108 0 0 1-1.629-.16ZM275.32 294.274a12.699 12.699 0 0 0-3.223 1.96 28.026 28.026 0 0 0-6.942 9.072c6.073 5.212 8.249 13.169 8.142 19.535a9.365 9.365 0 0 1-.808 4.394 13.167 13.167 0 0 1-2.929 2.9c-2.18 1.693-4.652 3.241-7.268 4.88-.532.333-1.059.669-1.589 1 4.627 2.443 8.667 6.5 12.289 9.973 1.937-1.242 3.883-2.546 5.767-4.009a25.76 25.76 0 0 0 6.669-7.164 23.688 23.688 0 0 0 2.867-11.728c.207-12.221-4.632-23.413-12.975-30.813Z" fill="#FF8F66"/><path d="M283.907 336.191c-1.9 3.231-4.538 4.991-6.648 6.629-1.966 1.527 2.374-3.111.354-1.821.536.356-5.329 6.756-4.775 7.1 1.987-1.271 3.987-2.607 5.921-4.109a25.776 25.776 0 0 0 6.669-7.164 23.699 23.699 0 0 0 2.867-11.728 45.65 45.65 0 0 0-1.4-11.707c-.05-.045-2.969 1.641-2.99 1.693 3.683 9.628 1.308 18.887.002 21.107Z" fill="url(#s)"/><path d="M271.238 333.696c3.008.447 4.92 1.072 6.907 3.374a11.287 11.287 0 0 1 2.259 4.032c.15.68-.539 3.51-4.033 5.469-6.966 3.9-13.422.522-14.241-.429-1.8-2.33-3.936-2.339-4.285-5.052-.2-2.2 7.842-8.387 13.393-7.394Z" fill="url(#t)"/><path d="M280.33 340.174c-.406-.6-1.543-2.655-1.951-3.173-1.988-2.3-6.092-6.207-8.82-4.862-2.76 1.359-5.516 2.022-9.1 4.641 1.12 2.051 1.052 5.978 3.1 7.1 4.254 2.057 7.849 3.528 9.887 3.161a13.286 13.286 0 0 0 6.884-6.867Z" fill="#FF8F66"/><path d="M262.048 338.686a16.113 16.113 0 0 0-8.105 9.138Z" fill="#FF8F66"/><path d="M262.048 338.686a16.113 16.113 0 0 0-8.105 9.138" stroke="#FF8F66" stroke-width="5" stroke-miterlimit="10" stroke-linecap="round"/><path d="M263.069 342.386a27.07 27.07 0 0 0-5.214 10.946Z" fill="#FF8F66"/><path d="M263.069 342.386a27.07 27.07 0 0 0-5.214 10.946" stroke="#FF8F66" stroke-width="5" stroke-miterlimit="10" stroke-linecap="round"/><path d="M268.631 343.136c-2.7 2.071-4.911 8-5.123 11.4Z" fill="#FF8F66"/><path d="M268.631 343.136c-2.7 2.071-4.911 8-5.123 11.4" stroke="#FF8F66" stroke-width="5" stroke-miterlimit="10" stroke-linecap="round"/><path d="M272.756 345.199c-1.979 1.6-3.138 5.731-3.408 8.3Z" fill="#FF8F66"/><path d="M272.756 345.199c-1.979 1.6-3.138 5.731-3.408 8.3" stroke="#FF8F66" stroke-width="5" stroke-miterlimit="10" stroke-linecap="round"/><path d="M261.426 341.333a14.677 14.677 0 0 0-5.908 7.259 2.782 2.782 0 0 1-2.073 1.675 2.458 2.458 0 0 0 2.876-1.669 18.06 18.06 0 0 1 5.105-7.265ZM259.643 353.905a2.94 2.94 0 0 1-2.288 1.872c.165.035.332.054.5.056a2.504 2.504 0 0 0 2.439-1.953 24.59 24.59 0 0 1 4.66-9.854c.037-.043.063-.091.096-.136-2.438 1.309-4.787 7.256-5.407 10.015ZM268.767 346.467a16.612 16.612 0 0 0-3.375 8.219 2.92 2.92 0 0 1-2.365 2.292c.107.024.215.042.323.053.053 0 .107.005.158.005a2.5 2.5 0 0 0 2.494-2.344 19.572 19.572 0 0 1 2.914-8.163c.037-.351-.192.283-.149-.062ZM271.268 353.246a2.503 2.503 0 0 1-2.747 2.225 2.469 2.469 0 0 1-1.128-.421 2.483 2.483 0 0 0 1.963.947 2.504 2.504 0 0 0 2.484-2.239c.286-2.721 1.305-5.931 2.5-6.617.843-.486.577-.175.61-.861-2.861 1.9-3.421 4.48-3.682 6.966Z" fill="#FB7E51"/><path d="M265.521 285.77c-2.409-.855-3.224 17.537.683 21.92 2.533 1.72 5.062 6.844 6.428 10.726.069-.037 10.2-2.132 14.216-5.132-2.113-11.289-10.213-24.688-21.327-27.514Z" fill="#F2EDDC"/><defs><linearGradient id="a" x1="-6.254" y1="96.745" x2="378.749" y2="346.419" gradientUnits="userSpaceOnUse"><stop stop-color="#E9DEFA"/><stop offset="1" stop-color="#FBFCDB"/></linearGradient><linearGradient id="b" x1="161.228" y1="96.745" x2="378.398" y2="421.507" gradientUnits="userSpaceOnUse"><stop stop-color="#E9DEFA"/><stop offset="1" stop-color="#FBFCDB"/></linearGradient><linearGradient id="c" x1="168.205" y1="579.321" x2="10.195" y2="283.575" gradientUnits="userSpaceOnUse"><stop stop-color="#E9DEFA"/><stop offset="1" stop-color="#FBFCDB"/></linearGradient><linearGradient id="d" x1="286.798" y1="589.431" x2="273.157" y2="306.19" gradientUnits="userSpaceOnUse"><stop stop-color="#E9DEFA"/><stop offset="1" stop-color="#FBFCDB"/></linearGradient><linearGradient id="f" x1="65.522" y1="257.588" x2="67.311" y2="312.457" gradientUnits="userSpaceOnUse"><stop stop-color="#4F00A3"/><stop offset="1" stop-color="#23004E"/></linearGradient><linearGradient id="g" x1="139.507" y1="303.913" x2="139.507" y2="330.866" gradientUnits="userSpaceOnUse"><stop stop-color="#FB7E51"/><stop offset="1" stop-color="#FF8F66"/></linearGradient><linearGradient id="i" x1="129.799" y1="326.976" x2="123.949" y2="300.15" gradientUnits="userSpaceOnUse"><stop stop-color="#E69C31"/><stop offset="1" stop-color="#E67731"/></linearGradient><linearGradient id="j" x1="130.348" y1="317.998" x2="123.935" y2="290.169" gradientUnits="userSpaceOnUse"><stop stop-color="#E69C31"/><stop offset="1" stop-color="#E67731"/></linearGradient><linearGradient id="l" x1="195.353" y1="311.129" x2="196.043" y2="329.261" gradientUnits="userSpaceOnUse"><stop stop-color="#FB7E51"/><stop offset="1" stop-color="#FF8F66"/></linearGradient><linearGradient id="m" x1="202.044" y1="337.991" x2="197.851" y2="328.545" gradientUnits="userSpaceOnUse"><stop stop-color="#FB7E51"/><stop offset="1" stop-color="#FF8F66"/></linearGradient><linearGradient id="o" x1="214.231" y1="326.527" x2="256.386" y2="289.386" gradientUnits="userSpaceOnUse"><stop stop-color="#E69C31"/><stop offset="1" stop-color="#E67731"/></linearGradient><linearGradient id="p" x1="214.138" y1="317.725" x2="250.076" y2="280.254" gradientUnits="userSpaceOnUse"><stop stop-color="#E69C31"/><stop offset="1" stop-color="#E67731"/></linearGradient><linearGradient id="q" x1="57.662" y1="307.874" x2="57.662" y2="329.224" gradientUnits="userSpaceOnUse"><stop stop-color="#FB7E51"/><stop offset="1" stop-color="#FF8F66"/></linearGradient><linearGradient id="r" x1="69.038" y1="341.043" x2="60.996" y2="328.375" gradientUnits="userSpaceOnUse"><stop stop-color="#FB7E51"/><stop offset="1" stop-color="#FF8F66"/></linearGradient><linearGradient id="s" x1="280.55" y1="313.39" x2="280.55" y2="348.099" gradientUnits="userSpaceOnUse"><stop stop-color="#FB7E51"/><stop offset="1" stop-color="#FF8F66"/></linearGradient><linearGradient id="t" x1="271.865" y1="351.549" x2="276.045" y2="339.111" gradientUnits="userSpaceOnUse"><stop stop-color="#FB7E51"/><stop offset="1" stop-color="#FF8F66"/></linearGradient></defs></svg>