<svg width="44" height="20" viewBox="0 0 44 20" fill="none" xmlns="http://www.w3.org/2000/svg">
<path d="M6.66178 0.755127C4.87673 0.789837 3.17789 1.52929 1.93612 2.8121C0.694338 4.09491 0.0104652 5.81688 0.0337803 7.60211V12.9081C0.0104652 14.6933 0.694338 16.4153 1.93612 17.6981C3.17789 18.9809 4.87673 19.7204 6.66178 19.7551C8.44683 19.7204 10.1457 18.9809 11.3874 17.6981C12.6292 16.4153 13.3131 14.6933 13.2898 12.9081V7.60211C13.3083 6.71624 13.1512 5.83547 12.8274 5.01068C12.5036 4.18589 12.0195 3.43346 11.4033 2.79681C10.787 2.16017 10.0506 1.65195 9.23682 1.30151C8.42299 0.951079 7.54779 0.765369 6.66178 0.755127V0.755127Z" fill="#262223"/>
<path d="M36.4059 0.755127C34.6209 0.789837 32.922 1.52929 31.6803 2.8121C30.4385 4.09491 29.7546 5.81688 29.7779 7.60211V12.9081C29.7546 14.6933 30.4385 16.4153 31.6803 17.6981C32.922 18.9809 34.6209 19.7204 36.4059 19.7551C38.191 19.7204 39.8898 18.9809 41.1316 17.6981C42.3734 16.4153 43.0572 14.6933 43.0339 12.9081V7.60211C43.0525 6.71624 42.8953 5.83547 42.5715 5.01068C42.2477 4.18589 41.7637 3.43346 41.1474 2.79681C40.5311 2.16017 39.7948 1.65195 38.981 1.30151C38.1671 0.951079 37.2919 0.765369 36.4059 0.755127V0.755127Z" fill="#262223"/>
</svg>
<svg width="44" height="20" fill="none" xmlns="http://www.w3.org/2000/svg"><path d="M6.662.755A6.76 6.76 0 0 0 .034 7.602v5.306a6.76 6.76 0 0 0 6.628 6.847 6.76 6.76 0 0 0 6.628-6.847V7.602A6.708 6.708 0 0 0 6.662.755ZM36.406.755a6.76 6.76 0 0 0-6.628 6.847v5.306a6.76 6.76 0 0 0 6.628 6.847 6.76 6.76 0 0 0 6.628-6.847V7.602A6.706 6.706 0 0 0 36.406.755Z" fill="#262223"/></svg>